<svg xmlns="http://www.w3.org/2000/svg" viewBox="0 0 72 72"><defs><style>.cls-1{fill:#feb592;}.cls-2{fill:#c43745;}.cls-3{fill:#f7f7f7;}.cls-4{fill:#e0e2e2;}</style></defs><title>Chat</title><g id="Chat"><path class="cls-1" d="M55,16H19a8,8,0,0,0-8,8V46a8,8,0,0,0,8,8H39l9.586,9.586A2,2,0,0,0,52,62.172V54h3a8,8,0,0,0,8-8V24A8,8,0,0,0,55,16Z" id="id_109"></path><path class="cls-2" d="M50,10H14a8,8,0,0,0-8,8V40a8,8,0,0,0,8,8h3v8.172a2,2,0,0,0,3.414,1.414L30,48H50a8,8,0,0,0,8-8V18A8,8,0,0,0,50,10Z" id="id_110" style="fill: rgb(220, 70, 21);"></path><path class="cls-3" d="M32,20.243h0a7.657,7.657,0,0,0-10.83,0h0a7.657,7.657,0,0,0,0,10.83l5.415,5.415,2.166,2.166a4.594,4.594,0,0,0,6.5,0l2.166-2.166,5.415-5.415a7.657,7.657,0,0,0,0-10.83h0A7.657,7.657,0,0,0,32,20.243Z" id="id_111"></path><path class="cls-4" d="M23.318,29.682a1,1,0,0,1-.707-.293,5.5,5.5,0,0,1,0-7.778,1,1,0,0,1,1.414,1.414,3.5,3.5,0,0,0,0,4.95,1,1,0,0,1-.707,1.707Z" id="id_112" style="fill: rgb(160, 160, 161);"></path></g></svg>