<svg version="1.1" id="Layer_1" xmlns="http://www.w3.org/2000/svg" xmlns:xlink="http://www.w3.org/1999/xlink" x="0px" y="0px" viewBox="0 0 512 512" style="enable-background:new 0 0 512 512;" xml:space="preserve">
<style type="text/css">
	.st0{fill:#E9022E;}
	.st1{fill:#E8D780;}
	.st2{fill:#020202;}
	.st3{fill:#FEFEFE;}
	.st4{fill:#FDFDFD;}
	.st5{fill:#EEEEEE;}
	.st6{fill:#F5F5F5;}
	.st7{fill:#010101;}
	.st8{fill:#FAFAFA;}
	.st9{fill:#D8D8D8;}
	.st10{fill:#030303;}
	.st11{fill:#F8F8F8;}
	.st12{fill:#E6E6E6;}
	.st13{fill:#060606;}
	.st14{fill:#040404;}
	.st15{fill:#181818;}
	.st16{fill:#101010;}
	.st17{fill:#121212;}
	.st18{fill:#FCFCFC;}
	.st19{fill:#0B0B0B;}
	.st20{fill:#0E0E0E;}
	.st21{fill:#FFFFFF;}
	.st22{fill:#723B22;}
	.st23{fill:#052625;}
	.st24{fill:#EAD6C7;}
	.st25{fill:#B07454;}
	.st26{fill:#78CDD4;}
</style>
<circle class="st0" cx="256" cy="256" r="244.3" id="id_101" style="fill: rgb(220, 70, 21);"></circle>
<g>
	<path class="st21" d="M314.7,186.4c0,4.1,0,8.2,0,12.3c0,3.6,0.6,6.8,3.3,9.5c2.1,2.2,2.5,5.1,2.3,7.9c-1.1,10.3-2,20.7-10.2,28.5
		c-1.2,1.1-1.3,2.4-1.2,3.9c0.4,12.1-5.9,21.3-13.4,29.6c-3.3,3.6-4.3,6.5-2.5,10.8c2.8,7,5,14.2,10.2,20c3.9,4.5,8.8,7.4,14.2,8.9
		c11.3,3.2,22.3,7.4,33.5,11c4.6,1.5,9.1,3.3,13.8,4.6c9,2.5,15.4,8.3,20.2,15.9c2.9,4.6,5.1,9.6,6.1,15.1
		c1.5,7.8,3.9,15.5,6.2,23.1c1.7,5.7-1.2,9.8-7,9.8c-11.6-0.2-23.2-0.3-34.8-0.3c-29.9,0-59.8,0.3-89.6,0.3
		c-34,0-67.9-0.3-101.9-0.2c-14.1,0-28.3-0.6-42.4,0.2c-4.6,0.3-7.5-4.2-6.1-8.9c2.7-8.8,4.6-17.9,7.1-26.7
		c3.8-13.6,11.6-24,26.1-28.4c13.9-4.3,27.5-9.4,41.3-14.1c1.9-0.7,4-0.7,6-1.3c9.9-3.5,16.7-10.3,20.6-20c0.8-2,1.5-4.1,2.4-6.2
		c2.9-7,2-8.8-2.8-14.6c-6.6-8-12.5-16.6-12.3-27.7c0.1-2.4-0.8-4.1-2.4-5.8c-8-9.1-8.9-20.3-8.6-31.7c0-0.8,0.2-1.7,0.7-2.2
		c5.7-5.3,4.8-12.1,4.5-18.9c-0.3-7.1-0.6-14.1,0.2-21.2c3.4-31.1,30.4-57.3,63.1-54.6c9.6,0.8,18.7,2.5,27.1,7.1
		c5.2,2.9,9.7,7,12.2,12.6c2.2,5.1,4.7,9.9,8.6,14c3.9,4.1,4.2,9.7,5.1,14.9C315.2,171,315.1,178.7,314.7,186.4z" id="id_102"></path>
</g>
</svg>